<svg id="Capa_1" enable-background="new 0 0 512 512" height="512" viewBox="0 0 512 512" width="512" xmlns="http://www.w3.org/2000/svg"><g><path d="m475.632 19.56h-439.264c-20.054 0-36.368 16.314-36.368 36.368v292.764c0 20.054 16.314 36.368 36.368 36.368h169.19l-9.392 47.977c-26.969 1.954-52.15 5.219-73.801 9.648-15.147 3.099-26.141 16.594-26.141 32.09 0 11.426 10.68 19.853 21.787 17.16 76.086-18.442 199.889-18.443 275.977 0 11.107 2.691 21.787-5.731 21.787-17.16 0-15.496-10.993-28.991-26.14-32.089-21.651-4.429-46.833-7.695-73.802-9.649l-9.392-47.977h169.19c20.054 0 36.368-16.314 36.368-36.368v-292.764c.001-20.054-16.313-36.368-36.367-36.368zm-89.002 437.821c8.196 1.677 14.146 8.992 14.146 17.394 0 1.717-1.592 2.984-3.254 2.582-79.357-19.235-203.686-19.235-283.043 0-1.662.403-3.254-.865-3.254-2.582 0-8.402 5.949-15.717 14.146-17.395 40.621-8.31 88.985-11.465 130.629-11.465 41.829 0 89.969 3.148 130.63 11.466zm-174.987-25.322 9.2-47h70.314l9.2 47c-29.015-1.524-59.787-1.514-88.714 0zm285.357-83.367c0 11.782-9.586 21.368-21.368 21.368-20.381 0-421.038 0-439.264 0-11.782 0-21.368-9.586-21.368-21.368v-292.764c0-11.782 9.586-21.368 21.368-21.368h439.264c11.782 0 21.368 9.586 21.368 21.368z"/><path d="m168.054 187.035c4.143 0 7.5-3.358 7.5-7.5s-3.357-7.5-7.5-7.5h-32.785c-4.143 0-7.5 3.358-7.5 7.5v73.161c0 4.142 3.357 7.5 7.5 7.5s7.5-3.358 7.5-7.5v-31.206h22.098c4.143 0 7.5-3.358 7.5-7.5s-3.357-7.5-7.5-7.5h-22.098v-19.455z"/><path d="m215.743 172.035c-3.111 0-5.899 1.921-7.008 4.829l-27.891 73.16c-1.476 3.871.466 8.205 4.336 9.68 3.869 1.475 8.205-.465 9.68-4.336l6.405-16.801h28.956l6.405 16.801c1.479 3.878 5.817 5.811 9.68 4.336 3.87-1.475 5.812-5.809 4.336-9.68l-27.891-73.16c-1.108-2.908-3.897-4.829-7.008-4.829zm-8.759 51.531 8.759-22.977 8.759 22.977z"/><path d="m273.906 172.035c-4.143 0-7.5 3.358-7.5 7.5v73.161c0 4.142 3.357 7.5 7.5 7.5s7.5-3.358 7.5-7.5v-22.489l26.719 27.696c2.875 2.981 7.625 3.066 10.604.19 2.981-2.875 3.066-7.624.19-10.604l-32.016-33.187 31.704-29.255c3.044-2.809 3.235-7.554.426-10.598-2.808-3.044-7.553-3.235-10.598-.426l-27.03 24.942v-19.43c.001-4.142-3.356-7.5-7.499-7.5z"/><path d="m376.731 187.035c4.143 0 7.5-3.358 7.5-7.5s-3.357-7.5-7.5-7.5h-30.054c-4.143 0-7.5 3.358-7.5 7.5v73.161c0 4.142 3.357 7.5 7.5 7.5h30.054c4.143 0 7.5-3.358 7.5-7.5s-3.357-7.5-7.5-7.5h-22.554v-23.706h22.554c4.143 0 7.5-3.358 7.5-7.5s-3.357-7.5-7.5-7.5h-22.554v-19.455z"/><path d="m472 50.06h-198.5c-4.143 0-7.5 3.358-7.5 7.5s3.357 7.5 7.5 7.5h89.417l20.989 27.145c3.938 5.094 10.135 8.135 16.573 8.135h66.021v239.22h-421v-274.5h193c4.143 0 7.5-3.358 7.5-7.5s-3.357-7.5-7.5-7.5h-198.5c-5.238 0-9.5 4.262-9.5 9.5v285.5c0 5.238 4.262 9.5 9.5 9.5h432c5.238 0 9.5-4.262 9.5-9.5 0-10.264 0-271.885 0-285.5 0-5.238-4.262-9.5-9.5-9.5zm-5.5 35.28h-66.021c-1.828 0-3.588-.864-4.706-2.311l-13.894-17.969h84.621z"/><path d="m428.919 206.116c4.143 0 7.5-3.358 7.5-7.5v-42.696c0-9.021-7.338-16.359-16.358-16.359h-328.122c-9.021 0-16.359 7.339-16.359 16.359v120.392c0 9.021 7.339 16.359 16.359 16.359h328.121c9.021 0 16.358-7.339 16.358-16.359v-42.695c0-4.142-3.357-7.5-7.5-7.5s-7.5 3.358-7.5 7.5v42.695c0 .75-.609 1.359-1.358 1.359h-328.121c-.737 0-1.359-.623-1.359-1.359v-120.393c0-.737.622-1.359 1.359-1.359h328.121c.736 0 1.358.623 1.358 1.359v42.696c.001 4.143 3.358 7.501 7.501 7.501z"/></g></svg>